<svg xmlns="http://www.w3.org/2000/svg" xmlns:xlink="http://www.w3.org/1999/xlink" width="40" zoomAndPan="magnify" viewBox="0 0 30 44.999999" height="60" preserveAspectRatio="xMidYMid meet" version="1.2"><defs><filter x="0%" y="0%" width="100%" filterUnits="objectBoundingBox" id="388454217c" height="100%"><feColorMatrix values="0 0 0 0 1 0 0 0 0 1 0 0 0 0 1 0 0 0 1 0" type="matrix" in="SourceGraphic"></feColorMatrix></filter><clipPath id="cbf6139b77"><path d="M 0 2.417969 L 30 2.417969 L 30 42.613281 L 0 42.613281 Z M 0 2.417969 " data-index="0"></path></clipPath><clipPath id="9afa16b527"><path d="M 0.75 2.417969 L 29.25 2.417969 C 29.664062 2.417969 30 2.753906 30 3.167969 L 30 41.832031 C 30 42.246094 29.664062 42.582031 29.25 42.582031 L 0.75 42.582031 C 0.335938 42.582031 0 42.246094 0 41.832031 L 0 3.167969 C 0 2.753906 0.335938 2.417969 0.75 2.417969 Z M 0.75 2.417969 " data-index="1"></path></clipPath><clipPath id="fd669a7dc3"><path d="M 0 2.417969 L 30 2.417969 L 30 42.636719 L 0 42.636719 Z M 0 2.417969 " data-index="2"></path></clipPath><clipPath id="f5128292a0"><path d="M 0.75 2.417969 L 29.25 2.417969 C 29.664062 2.417969 30 2.753906 30 3.167969 L 30 41.828125 C 30 42.242188 29.664062 42.578125 29.25 42.578125 L 0.75 42.578125 C 0.335938 42.578125 0 42.242188 0 41.828125 L 0 3.167969 C 0 2.753906 0.335938 2.417969 0.75 2.417969 Z M 0.75 2.417969 " data-index="3"></path></clipPath><clipPath id="3996c4f681"><rect x="0" width="30" y="0" height="45"></rect></clipPath><clipPath id="57fecb436e"><path d="M 22.945312 10.3125 L 27 10.3125 L 27 33.890625 L 22.945312 33.890625 Z M 22.945312 10.3125 " data-index="4"></path></clipPath><clipPath id="035d3bb0f8"><path d="M 23.695312 10.3125 L 26.25 10.3125 C 26.664062 10.3125 27 10.648438 27 11.0625 L 27 33.125 C 27 33.539062 26.664062 33.875 26.25 33.875 L 23.695312 33.875 C 23.28125 33.875 22.945312 33.539062 22.945312 33.125 L 22.945312 11.0625 C 22.945312 10.648438 23.28125 10.3125 23.695312 10.3125 Z M 23.695312 10.3125 " data-index="5"></path></clipPath><clipPath id="882ddff721"><path d="M 3.835938 12.53125 L 20.765625 12.53125 L 20.765625 31.613281 L 3.835938 31.613281 Z M 3.835938 12.53125 " data-index="6"></path></clipPath><clipPath id="ffe00cc0f1"><path d="M 4.304688 21.34375 L 19.464844 12.679688 C 19.734375 12.527344 20.0625 12.527344 20.332031 12.683594 C 20.601562 12.839844 20.765625 13.125 20.765625 13.4375 L 20.765625 30.738281 C 20.765625 31.046875 20.601562 31.335938 20.332031 31.488281 C 20.0625 31.644531 19.734375 31.648438 19.464844 31.492188 L 4.304688 22.832031 C 4.039062 22.679688 3.875 22.394531 3.875 22.085938 C 3.875 21.777344 4.039062 21.496094 4.304688 21.34375 Z M 4.304688 21.34375 " data-index="7"></path></clipPath></defs><g id="704aa2fc2f"><g mask="url(#cf06a86490)" transform="matrix(1,0,0,1,0,0)"><g clip-path="url(#3996c4f681)"><g clip-rule="nonzero" clip-path="url(#cbf6139b77)"><g clip-rule="nonzero" clip-path="url(#9afa16b527)"><path style="fill-rule: nonzero; fill: rgb(255, 255, 255); fill-opacity: 1; opacity: 1;" d="M 0 2.417969 L 30 2.417969 L 30 42.613281 L 0 42.613281 Z M 0 2.417969 " data-index="8"></path></g></g><g clip-rule="nonzero" clip-path="url(#fd669a7dc3)"><g clip-rule="nonzero" clip-path="url(#f5128292a0)"><path style="fill: none; stroke-linecap: butt; stroke-linejoin: miter; stroke-opacity: 1; stroke-miterlimit: 4; opacity: 1;" d="M 0.999 -0.00126668 L 38.999003 -0.00126668 C 39.551086 -0.00126668 39.999003 0.44665 39.999003 0.998733 L 39.999003 52.545612 C 39.999003 53.097695 39.551086 53.545612 38.999003 53.545612 L 0.999 53.545612 C 0.446917 53.545612 -0.000999909 53.097695 -0.000999909 52.545612 L -0.000999909 0.998733 C -0.000999909 0.44665 0.446917 -0.00126668 0.999 -0.00126668 Z M 0.999 -0.00126668 " transform="matrix(0.75,0,0,0.75,0.000749932,2.418919)" data-index="9"></path></g></g></g><mask id="cf06a86490"><g filter="url(#388454217c)"><rect x="0" width="30" y="0" height="44.999999" style="fill:#000000;fill-opacity:0.22;stroke:none;"></rect></g></mask></g><g clip-rule="nonzero" clip-path="url(#57fecb436e)"><g clip-rule="nonzero" clip-path="url(#035d3bb0f8)"><path style=" stroke:none;fill-rule:nonzero;fill:#075985;fill-opacity:1;" d="M 22.945312 10.3125 L 27 10.3125 L 27 33.875 L 22.945312 33.875 Z M 22.945312 10.3125 " data-index="10"></path></g></g><g clip-rule="nonzero" clip-path="url(#882ddff721)"><g clip-rule="nonzero" clip-path="url(#ffe00cc0f1)"><path style=" stroke:none;fill-rule:nonzero;fill:#075985;fill-opacity:1;" d="M 3.003906 32.238281 L 3.003906 11.90625 L 20.765625 11.90625 L 20.765625 32.238281 Z M 3.003906 32.238281 " data-index="11"></path></g></g></g></svg>